<svg xmlns="http://www.w3.org/2000/svg" viewBox="0 0 64 64">
  <rect width="64" height="64" rx="12" fill="#1b4332"/>
  <!-- Stylized leaf / sprout -->
  <path d="M32 52 C32 52 16 40 16 26 C16 18 24 12 32 12 C40 12 48 18 48 26 C48 40 32 52 32 52Z" fill="#40916c"/>
  <path d="M32 52 C32 52 26 40 28 26 C29 18 30 12 32 12" fill="#2d6a4f"/>
  <line x1="32" y1="52" x2="32" y2="36" stroke="#d8f3dc" stroke-width="2" stroke-linecap="round"/>
  <path d="M32 44 C32 44 24 40 22 34" stroke="#d8f3dc" stroke-width="1.5" stroke-linecap="round" fill="none"/>
  <path d="M32 38 C32 38 40 34 42 28" stroke="#d8f3dc" stroke-width="1.5" stroke-linecap="round" fill="none"/>
</svg>
